<svg width="12" height="12" viewBox="0 0 12 12" fill="none" xmlns="http://www.w3.org/2000/svg">
<path fill-rule="evenodd" clip-rule="evenodd" d="M1.36099 2.833L2.08399 10.788C2.14699 11.474 2.72199 12 3.41199 12H8.58799C9.27799 12 9.85299 11.474 9.91599 10.788L10.639 2.833H1.35999H1.36099ZM7.83299 9.708C7.83299 9.984 7.60899 10.208 7.33299 10.208C7.05699 10.208 6.83299 9.984 6.83299 9.708V5.042C6.83299 4.766 7.05699 4.542 7.33299 4.542C7.60899 4.542 7.83299 4.766 7.83299 5.042V9.708ZM4.66699 4.542C4.94299 4.542 5.16699 4.766 5.16699 5.042V9.708C5.16699 9.984 4.94299 10.208 4.66699 10.208C4.39099 10.208 4.16699 9.984 4.16699 9.708V5.042C4.16699 4.766 4.39099 4.542 4.66699 4.542ZM5.99999 0C6.27599 0 6.49999 0.224 6.49999 0.5V1H10.833C11.109 1 11.333 1.224 11.333 1.5C11.333 1.776 11.109 2 10.833 2H1.16699C0.890992 2 0.666992 1.776 0.666992 1.5C0.666992 1.224 0.890992 1 1.16699 1H5.49999V0.5C5.49999 0.224 5.72399 0 5.99999 0Z" fill="#0057B6"/>
</svg>
