<svg width="20" height="18" viewBox="0 0 20 18" fill="none" xmlns="http://www.w3.org/2000/svg">
<path fill-rule="evenodd" clip-rule="evenodd" d="M19.7 8.3L16.7 5.3C16.3 4.9 15.7 4.9 15.3 5.3C14.9 5.7 14.9 6.3 15.3 6.7L16.6 8H7.5C6.9 8 6.5 8.4 6.5 9C6.5 9.6 6.9 10 7.5 10H16.6L15.3 11.3C14.9 11.7 14.9 12.3 15.3 12.7C15.5 12.9 15.8 13 16 13C16.2 13 16.5 12.9 16.7 12.7L19.7 9.7C20.1 9.3 20.1 8.7 19.7 8.3ZM14 14C13.4 14 13 14.4 13 15C13 15.6 12.6 16 12.1 16H2.9C2.4 16 2 15.6 2 15V3C2 2.4 2.4 2 2.9 2H12.2C12.6 2 13 2.4 13 3C13 3.6 13.4 4 14 4C14.6 4 15 3.6 15 3C15 1.3 13.7 0 12.1 0H2.9C1.3 0 0 1.3 0 3V15C0 16.7 1.3 18 2.9 18H12.2C13.8 18 15.1 16.7 15.1 15C15 14.4 14.6 14 14 14Z" fill="#0057B6"/>
</svg>
