<svg width="20" height="18" viewBox="0 0 20 18" fill="none" xmlns="http://www.w3.org/2000/svg">
<path fill-rule="evenodd" clip-rule="evenodd" d="M19.1 14.5L17 10.7V7C17 3.1 13.9 0 10 0C6.1 0 3 3.1 3 7V10.7L0.9 14.5C0.7 14.8 0.7 15.2 0.9 15.5C1.1 15.8 1.4 16 1.8 16H8C8 17.1 8.9 18 10 18C11.1 18 12 17.1 12 16H18.2C18.6 16 18.9 15.8 19.1 15.5C19.2 15.2 19.2 14.8 19.1 14.5ZM3.5 14L4.9 11.5C5 11.3 5 11.2 5 11V7C5 4.2 7.2 2 10 2C12.8 2 15 4.2 15 7V11C15 11.2 15 11.3 15.1 11.5L16.5 14H3.5Z" fill="#0057B6"/>
</svg>
