<svg width="138" height="38" viewBox="0 0 138 38" fill="none" xmlns="http://www.w3.org/2000/svg">
<path d="M0.160511 37V0.636363H7.84872V30.6612H23.4382V37H0.160511ZM60.5298 18.8182C60.5298 22.7836 59.7782 26.1572 58.2749 28.9389C56.7834 31.7206 54.7474 33.8454 52.1669 35.3132C49.5982 36.7692 46.71 37.4972 43.5021 37.4972C40.2706 37.4972 37.3705 36.7633 34.8018 35.2955C32.2332 33.8277 30.2031 31.7029 28.7116 28.9212C27.2202 26.1394 26.4744 22.7718 26.4744 18.8182C26.4744 14.8527 27.2202 11.4792 28.7116 8.69744C30.2031 5.91572 32.2332 3.79687 34.8018 2.34091C37.3705 0.873105 40.2706 0.139203 43.5021 0.139203C46.71 0.139203 49.5982 0.873105 52.1669 2.34091C54.7474 3.79687 56.7834 5.91572 58.2749 8.69744C59.7782 11.4792 60.5298 14.8527 60.5298 18.8182ZM52.7351 18.8182C52.7351 16.2495 52.3504 14.0833 51.581 12.3196C50.8234 10.5559 49.7521 9.21828 48.3672 8.30682C46.9822 7.39536 45.3606 6.93963 43.5021 6.93963C41.6437 6.93963 40.022 7.39536 38.6371 8.30682C37.2521 9.21828 36.175 10.5559 35.4055 12.3196C34.648 14.0833 34.2692 16.2495 34.2692 18.8182C34.2692 21.3868 34.648 23.553 35.4055 25.3168C36.175 27.0805 37.2521 28.4181 38.6371 29.3295C40.022 30.241 41.6437 30.6967 43.5021 30.6967C45.3606 30.6967 46.9822 30.241 48.3672 29.3295C49.7521 28.4181 50.8234 27.0805 51.581 25.3168C52.3504 23.553 52.7351 21.3868 52.7351 18.8182ZM90.3372 12.3906C90.0886 11.5265 89.7394 10.763 89.2896 10.1001C88.8398 9.42543 88.2894 8.85724 87.6383 8.3956C86.9991 7.92211 86.2652 7.56108 85.4366 7.3125C84.6199 7.06392 83.7143 6.93963 82.72 6.93963C80.8616 6.93963 79.228 7.40128 77.8194 8.32457C76.4226 9.24787 75.3336 10.5914 74.5524 12.3551C73.7711 14.107 73.3805 16.2495 73.3805 18.7827C73.3805 21.3158 73.7652 23.4702 74.5346 25.2457C75.304 27.0213 76.3931 28.3767 77.8017 29.3118C79.2103 30.2351 80.8734 30.6967 82.791 30.6967C84.5311 30.6967 86.0166 30.389 87.2477 29.7734C88.4906 29.1461 89.4376 28.2642 90.0886 27.1278C90.7515 25.9915 91.0829 24.648 91.0829 23.0973L92.6454 23.3281H83.2704V17.5398H98.487V22.1207C98.487 25.3168 97.8123 28.063 96.4629 30.3594C95.1135 32.6439 93.255 34.4077 90.8876 35.6506C88.5202 36.8816 85.8095 37.4972 82.7555 37.4972C79.3464 37.4972 76.3516 36.7455 73.7711 35.2422C71.1906 33.727 69.1783 31.5786 67.7342 28.7969C66.3019 26.0033 65.5858 22.6889 65.5858 18.8537C65.5858 15.9062 66.0119 13.2784 66.8642 10.9702C67.7283 8.65009 68.9357 6.68513 70.4863 5.07528C72.037 3.46543 73.8422 2.24029 75.9018 1.39986C77.9615 0.559421 80.1928 0.139203 82.5957 0.139203C84.6554 0.139203 86.573 0.44105 88.3485 1.04474C90.1241 1.6366 91.6984 2.47704 93.0716 3.56605C94.4565 4.65506 95.5869 5.95123 96.4629 7.45454C97.3388 8.94602 97.9011 10.5914 98.1497 12.3906H90.3372ZM137.678 18.8182C137.678 22.7836 136.927 26.1572 135.423 28.9389C133.932 31.7206 131.896 33.8454 129.315 35.3132C126.747 36.7692 123.858 37.4972 120.651 37.4972C117.419 37.4972 114.519 36.7633 111.95 35.2955C109.382 33.8277 107.352 31.7029 105.86 28.9212C104.369 26.1394 103.623 22.7718 103.623 18.8182C103.623 14.8527 104.369 11.4792 105.86 8.69744C107.352 5.91572 109.382 3.79687 111.95 2.34091C114.519 0.873105 117.419 0.139203 120.651 0.139203C123.858 0.139203 126.747 0.873105 129.315 2.34091C131.896 3.79687 133.932 5.91572 135.423 8.69744C136.927 11.4792 137.678 14.8527 137.678 18.8182ZM129.884 18.8182C129.884 16.2495 129.499 14.0833 128.729 12.3196C127.972 10.5559 126.901 9.21828 125.516 8.30682C124.131 7.39536 122.509 6.93963 120.651 6.93963C118.792 6.93963 117.17 7.39536 115.786 8.30682C114.401 9.21828 113.323 10.5559 112.554 12.3196C111.796 14.0833 111.418 16.2495 111.418 18.8182C111.418 21.3868 111.796 23.553 112.554 25.3168C113.323 27.0805 114.401 28.4181 115.786 29.3295C117.17 30.241 118.792 30.6967 120.651 30.6967C122.509 30.6967 124.131 30.241 125.516 29.3295C126.901 28.4181 127.972 27.0805 128.729 25.3168C129.499 23.553 129.884 21.3868 129.884 18.8182Z" fill="black"/>
</svg>
