<svg width="28" height="24" viewBox="0 0 28 24" fill="none" xmlns="http://www.w3.org/2000/svg">
<path fill-rule="evenodd" clip-rule="evenodd" d="M14 2V2L24.6 10.7H23.3C22.6 10.7 22 11.3 22 12V21.9C22 21.9 21.9 22 21.8 22H18V16.5C18 15.7 17.3 15 16.5 15H11.6C10.8 15 10.1 15.7 10.1 16.5V22H6.19998C6.09998 22 5.99997 22 5.99997 22V22V12C5.99997 11.3 5.39998 10.7 4.69998 10.7H3.39998L14 2M14 0C13.5 0 13.1 0.2 12.8 0.5L1.09997 10.1C0.599975 10.6 0.399975 11.3 0.699975 11.9C0.999975 12.4 1.59997 12.8 2.19998 12.8H3.99997V22C3.99997 23.1 4.99997 24 6.19998 24H10.7C11.4 24 12 23.4 12 22.7V17H16V22.7C16 23.4 16.6 24 17.3 24H21.8C23 24 24 23.1 24 22V12.8H25.8C26.5 12.8 27.1 12.5 27.3 11.9C27.6 11.3 27.4 10.6 26.9 10.1L15.3 0.5C14.9 0.2 14.5 0 14 0V0Z" fill="white"/>
</svg>
